/* XPM */
static char * icon_48_xpm[] = {
"48 48 635 2",
"  	c None",
". 	c #7A7988",
"+ 	c #B2B1BA",
"@ 	c #AEAEB6",
"# 	c #AEAEB7",
"$ 	c #AFAFB7",
"% 	c #AFAEB7",
"& 	c #B2B2BA",
"* 	c #1F1E35",
"= 	c #ACACB4",
"- 	c #FFFFFF",
"; 	c #FEFEFE",
"> 	c #A9A9B2",
", 	c #FAFAE6",
"' 	c #FFFEFF",
") 	c #FDFDF1",
"! 	c #EAE764",
"~ 	c #DED91A",
"{ 	c #DBD717",
"] 	c #D2D00F",
"^ 	c #EFEEB9",
"/ 	c #FAFEE5",
"( 	c #E5EB46",
"_ 	c #DED51B",
": 	c #D5CE1C",
"< 	c #C2BE0E",
"[ 	c #C0BD0C",
"} 	c #C2C000",
"| 	c #F5F4D6",
"1 	c #F9FEDB",
"2 	c #E3FA58",
"3 	c #E4EA4C",
"4 	c #D4CE1C",
"5 	c #BAB509",
"6 	c #A6A803",
"7 	c #B1AD03",
"8 	c #C9C510",
"9 	c #CACC1E",
"0 	c #F7FED3",
"a 	c #E2F853",
"b 	c #E3F255",
"c 	c #DDE63C",
"d 	c #D1D427",
"e 	c #C3BE12",
"f 	c #9A9C09",
"g 	c #AAA704",
"h 	c #D5CD19",
"i 	c #C3C101",
"j 	c #E1E281",
"k 	c #F6FECD",
"l 	c #E1F64F",
"m 	c #E0EE4E",
"n 	c #DEE438",
"o 	c #DADE28",
"p 	c #DAE235",
"q 	c #CDCE1C",
"r 	c #AEAC0C",
"s 	c #9C9D09",
"t 	c #D6CE11",
"u 	c #D3CE1C",
"v 	c #BCC100",
"w 	c #F5F5D6",
"x 	c #E0EC4A",
"y 	c #DDE438",
"z 	c #DBDF2C",
"A 	c #D9DD29",
"B 	c #DADE2B",
"C 	c #D9E136",
"D 	c #CAC91A",
"E 	c #B1B103",
"F 	c #CEC90C",
"G 	c #D9D218",
"H 	c #CCCA13",
"I 	c #C3C810",
"J 	c #A9A8B2",
"K 	c #FEFFFF",
"L 	c #F6FECE",
"M 	c #E1F751",
"N 	c #E1EB4A",
"O 	c #DBE235",
"P 	c #DADE2D",
"Q 	c #DBDE2A",
"R 	c #DADD29",
"S 	c #DADD27",
"T 	c #DCE438",
"U 	c #D5DB2D",
"V 	c #C1C114",
"W 	c #C3C305",
"X 	c #D4CF14",
"Y 	c #D7D21B",
"Z 	c #BFC301",
"` 	c #D9DA71",
" .	c #AAA9B2",
"..	c #F8FED4",
"+.	c #E2F756",
"@.	c #E0ED4B",
"#.	c #E3E537",
"$.	c #C5D538",
"%.	c #DCDE2C",
"&.	c #DEDE28",
"*.	c #DADD2A",
"=.	c #DAE53D",
"-.	c #CCCF1F",
";.	c #B8B809",
">.	c #CAC707",
",.	c #D8D016",
"'.	c #D2CE1A",
").	c #B6BA00",
"!.	c #EFEFCF",
"~.	c #F8FED6",
"{.	c #E3F756",
"].	c #DDE335",
"^.	c #BBD033",
"/.	c #489410",
"(.	c #569916",
"_.	c #C0CF2C",
":.	c #E8E62B",
"<.	c #DBDF2A",
"[.	c #D8E02E",
"}.	c #D5DE36",
"|.	c #C5C718",
"1.	c #B9B904",
"2.	c #CFC80D",
"3.	c #D9D21A",
"4.	c #C8C812",
"5.	c #BBC007",
"6.	c #F9FEDA",
"7.	c #E3F858",
"8.	c #E0ED4C",
"9.	c #DCE236",
"0.	c #DBDE2C",
"a.	c #ACC523",
"b.	c #498D10",
"c.	c #46860E",
"d.	c #317D0A",
"e.	c #72A01F",
"f.	c #E3E731",
"g.	c #D8E22D",
"h.	c #CDDC2B",
"i.	c #D5E53D",
"j.	c #CED429",
"k.	c #BBBC10",
"l.	c #C1BF05",
"m.	c #D5CC13",
"n.	c #D9D01E",
"o.	c #C4C407",
"p.	c #D1D461",
"q.	c #F9FEDE",
"r.	c #E4F858",
"s.	c #E0ED4D",
"t.	c #DCE337",
"u.	c #DBDE2D",
"v.	c #C0CE26",
"w.	c #327D0A",
"x.	c #D9D828",
"y.	c #588611",
"z.	c #206C05",
"A.	c #276B0B",
"B.	c #A8C42E",
"C.	c #CFE22E",
"D.	c #CADC2D",
"E.	c #D1DE34",
"F.	c #C7C916",
"G.	c #CFC70F",
"H.	c #E2D426",
"I.	c #CBC914",
"J.	c #F5F5EA",
"K.	c #FAFFE1",
"L.	c #E3F85A",
"M.	c #E1E537",
"N.	c #E1E231",
"O.	c #E2E22E",
"P.	c #DFDF29",
"Q.	c #D4D929",
"R.	c #1E6F06",
"S.	c #C9CF29",
"T.	c #79A52B",
"U.	c #0C5300",
"V.	c #125502",
"W.	c #003F00",
"X.	c #84A020",
"Y.	c #C8DA2A",
"Z.	c #C5D832",
"`.	c #C7D225",
" +	c #C4C711",
".+	c #C6C513",
"++	c #C9CA12",
"@+	c #C4C90E",
"#+	c #A4AF00",
"$+	c #E8EBD8",
"%+	c #FBFEE6",
"&+	c #E3F95B",
"*+	c #E1EF50",
"=+	c #E3E739",
"-+	c #BACF38",
";+	c #459117",
">+	c #488E15",
",+	c #BECD28",
"'+	c #EFEA2D",
")+	c #216D06",
"!+	c #307310",
"~+	c #0D5000",
"{+	c #BAC929",
"]+	c #B3C727",
"^+	c #7A951B",
"/+	c #CEE02E",
"(+	c #B5CC2A",
"_+	c #A8C227",
":+	c #9FB723",
"<+	c #AAB513",
"[+	c #B6BD0F",
"}+	c #B6BF0C",
"|+	c #98A603",
"1+	c #9AA74A",
"2+	c #FFFFFE",
"3+	c #FBFFED",
"4+	c #E4F95D",
"5+	c #E2F052",
"6+	c #E5E93C",
"7+	c #B5CD38",
"8+	c #2B7C09",
"9+	c #8AA11B",
"0+	c #437F0C",
"a+	c #217005",
"b+	c #E8E82D",
"c+	c #417E10",
"d+	c #1D5C04",
"e+	c #C7D22B",
"f+	c #C8DB2C",
"g+	c #C4D82C",
"h+	c #C2D62B",
"i+	c #B4CA2A",
"j+	c #A7C027",
"k+	c #97AF1E",
"l+	c #89A117",
"m+	c #839913",
"n+	c #829410",
"o+	c #708305",
"p+	c #7D8F34",
"q+	c #FCFFF2",
"r+	c #E4F95E",
"s+	c #E2F054",
"t+	c #E1E93D",
"u+	c #ADC833",
"v+	c #2D7E09",
"w+	c #C0C224",
"x+	c #E3E42A",
"y+	c #DBDC29",
"z+	c #136202",
"A+	c #689515",
"B+	c #729C1B",
"C+	c #216105",
"D+	c #D1E02E",
"E+	c #C3D72B",
"F+	c #BED32A",
"G+	c #B1C829",
"H+	c #A5BD25",
"I+	c #96AC1D",
"J+	c #89A119",
"K+	c #859E18",
"L+	c #7F9916",
"M+	c #698307",
"N+	c #819440",
"O+	c #FEFEFD",
"P+	c #FDFFF6",
"Q+	c #E4F960",
"R+	c #E2F154",
"S+	c #E0E83E",
"T+	c #E3E531",
"U+	c #C8D127",
"V+	c #1B7205",
"W+	c #AEC420",
"X+	c #DFE029",
"Y+	c #DDE22C",
"Z+	c #6F9B17",
"`+	c #256407",
" @	c #95B523",
".@	c #134A03",
"+@	c #CBDC2D",
"@@	c #BCD12A",
"#@	c #B0C729",
"$@	c #A2B923",
"%@	c #93AA1D",
"&@	c #8AA31A",
"*@	c #879F1A",
"=@	c #809A17",
"-@	c #678304",
";@	c #8A9D5B",
">@	c #FDFFFA",
",@	c #E4F961",
"'@	c #E1F154",
")@	c #E6EB3F",
"!@	c #C1D43C",
"~@	c #91B72B",
"{@	c #E4E42F",
"]@	c #749E15",
"^@	c #E4E62D",
"/@	c #D2DE2B",
"(@	c #8AAE29",
"_@	c #215A05",
":@	c #BECF2B",
"<@	c #C3D32B",
"[@	c #BAD02A",
"}@	c #AEC529",
"|@	c #9EB621",
"1@	c #90A71C",
"2@	c #8AA21A",
"3@	c #869F1A",
"4@	c #809918",
"5@	c #627E02",
"6@	c #A5B284",
"7@	c #FEFFFD",
"8@	c #E4F963",
"9@	c #E5EB40",
"0@	c #9AC035",
"a@	c #1D6D03",
"b@	c #216B04",
"c@	c #217108",
"d@	c #E3E22B",
"e@	c #105C01",
"f@	c #699715",
"g@	c #C8D93A",
"h@	c #004203",
"i@	c #8DA21F",
"j@	c #C8DA2C",
"k@	c #B8CE2A",
"l@	c #ABC327",
"m@	c #9BB320",
"n@	c #8DA51B",
"o@	c #87A01A",
"p@	c #859E1A",
"q@	c #7D9617",
"r@	c #5D7802",
"s@	c #C2CBB0",
"t@	c #E4F965",
"u@	c #E3F154",
"v@	c #DFE840",
"w@	c #DBE239",
"x@	c #1E6E07",
"y@	c #D9D529",
"z@	c #E9E52B",
"A@	c #2B6E07",
"B@	c #598C11",
"C@	c #98B21F",
"D@	c #034D00",
"E@	c #738D19",
"F@	c #CBDD2D",
"G@	c #B5CB29",
"H@	c #AAC027",
"I@	c #98B01E",
"J@	c #8BA319",
"K@	c #849C19",
"L@	c #779114",
"M@	c #5C770B",
"N@	c #E1E4DC",
"O@	c #E5F96B",
"P@	c #DEE841",
"Q@	c #E1E332",
"R@	c #A4C029",
"S@	c #53860E",
"T@	c #E6E52A",
"U@	c #AFC421",
"V@	c #014801",
"W@	c #EDF332",
"X@	c #235906",
"Y@	c #8DA31F",
"Z@	c #CADC2C",
"`@	c #B4CB29",
" #	c #A7BF25",
".#	c #94AC1C",
"+#	c #859F1A",
"@#	c #819918",
"##	c #718C12",
"$#	c #677F24",
"%#	c #F8F9FA",
"&#	c #E6F971",
"*#	c #E2F254",
"=#	c #DFE841",
"-#	c #DCE132",
";#	c #DEDF2C",
">#	c #BCCB25",
",#	c #1A6804",
"'#	c #ECE72A",
")#	c #CED82B",
"!#	c #789F29",
"~#	c #014501",
"{#	c #47781F",
"]#	c #D3E02E",
"^#	c #C2D52B",
"/#	c #B2CA29",
"(#	c #A4BC23",
"_#	c #90A81B",
":#	c #87A018",
"<#	c #7F9817",
"[#	c #69850B",
"}#	c #80934F",
"|#	c #EBFB88",
"1#	c #E1F252",
"2#	c #DFE843",
"3#	c #DCE134",
"4#	c #DADE2C",
"5#	c #DDDE27",
"6#	c #EBE72A",
"7#	c #1F6704",
"8#	c #719B18",
"9#	c #DDE338",
"0#	c #1D570E",
"a#	c #235605",
"b#	c #617F14",
"c#	c #BFD22A",
"d#	c #9FB722",
"e#	c #8CA51A",
"f#	c #869F19",
"g#	c #859D1A",
"h#	c #7E9718",
"i#	c #648008",
"j#	c #A0AD7F",
"k#	c #E9FA7F",
"l#	c #DCE235",
"m#	c #E0E129",
"n#	c #9FB42E",
"o#	c #A2B91F",
"p#	c #BAC623",
"q#	c #004300",
"r#	c #003D00",
"s#	c #194C03",
"t#	c #C4D12B",
"u#	c #C3D62C",
"v#	c #AEC527",
"w#	c #8AA319",
"x#	c #849D19",
"y#	c #7D9618",
"z#	c #5E7907",
"A#	c #C3CCB6",
"B#	c #EAFB88",
"C#	c #E2F253",
"D#	c #E3EC42",
"E#	c #DEE336",
"F#	c #DDDF29",
"G#	c #E1E330",
"H#	c #97AD20",
"I#	c #91A720",
"J#	c #D5DE28",
"K#	c #CAD62A",
"L#	c #AAB624",
"M#	c #CCDC2C",
"N#	c #B9CE2A",
"O#	c #ABC326",
"P#	c #98AF1F",
"Q#	c #859E19",
"R#	c #839B19",
"S#	c #779115",
"T#	c #627C17",
"U#	c #E9EBEA",
"V#	c #EAFA8D",
"W#	c #E2F34D",
"X#	c #E7EE42",
"Y#	c #99B636",
"Z#	c #CFD528",
"`#	c #DDDF2B",
" $	c #B3C230",
".$	c #547F0F",
"+$	c #669018",
"@$	c #BFC82A",
"#$	c #A7BC2A",
"$$	c #C5D52A",
"%$	c #C2D529",
"&$	c #B6CC29",
"*$	c #A9C126",
"=$	c #94AC1D",
"-$	c #819A18",
";$	c #6F890D",
">$	c #778C40",
",$	c #E7F095",
"'$	c #E2F44F",
")$	c #DEE741",
"!$	c #DDE234",
"~$	c #A9B722",
"{$	c #E5E52A",
"]$	c #A3B82A",
"^$	c #7A9A1B",
"/$	c #95A524",
"($	c #8CAB1B",
"_$	c #3E6D1C",
":$	c #B8C625",
"<$	c #BFD229",
"[$	c #A6BD24",
"}$	c #91A91C",
"|$	c #869F18",
"1$	c #7F9919",
"2$	c #668108",
"3$	c #99AA77",
"4$	c #E2E3CE",
"5$	c #D8EA42",
"6$	c #E0EB47",
"7$	c #DCE032",
"8$	c #E6E42B",
"9$	c #779F16",
"0$	c #CCD131",
"a$	c #386B0F",
"b$	c #B6C722",
"c$	c #83A320",
"d$	c #98AC28",
"e$	c #A6B722",
"f$	c #C2D42A",
"g$	c #B3C928",
"h$	c #A3BA23",
"i$	c #8EA71A",
"j$	c #849D1A",
"k$	c #7D9619",
"l$	c #637E0C",
"m$	c #C7CFB7",
"n$	c #AEB47A",
"o$	c #DCEA38",
"p$	c #DDE235",
"q$	c #E4E228",
"r$	c #6E921F",
"s$	c #B6C122",
"t$	c #6D9413",
"u$	c #CFD92A",
"v$	c #37640C",
"w$	c #B9C826",
"x$	c #BCD029",
"y$	c #AEC627",
"z$	c #9FB721",
"A$	c #8CA41A",
"B$	c #869E19",
"C$	c #839C1A",
"D$	c #698122",
"E$	c #FBFBFF",
"F$	c #ABAAB3",
"G$	c #B6BAA1",
"H$	c #C4CF1C",
"I$	c #D9DB2A",
"J$	c #D9DC27",
"K$	c #D6DA27",
"L$	c #BBC723",
"M$	c #86A519",
"N$	c #C0CF27",
"O$	c #86A31C",
"P$	c #CFDC2C",
"Q$	c #BBCF29",
"R$	c #ADC427",
"S$	c #9BB21F",
"T$	c #8AA218",
"U$	c #6D880C",
"V$	c #7E914A",
"W$	c #FDFDFD",
"X$	c #7C8724",
"Y$	c #D8DD26",
"Z$	c #D7DB26",
"`$	c #D5DA27",
" %	c #E0E52B",
".%	c #4E7B0F",
"+%	c #D6E02D",
"@%	c #C1D22A",
"#%	c #AAC126",
"$%	c #96AF1E",
"%%	c #88A018",
"&%	c #819A1A",
"*%	c #637E08",
"=%	c #A1AC83",
"-%	c #84897D",
";%	c #A7B417",
">%	c #D4DA27",
",%	c #D2DB28",
"'%	c #CEDB2A",
")%	c #A4B922",
"!%	c #9BB321",
"~%	c #92AB1D",
"{%	c #87A017",
"]%	c #7A9415",
"^%	c #5D780C",
"/%	c #D6DCCD",
"(%	c #747B63",
"_%	c #4C5527",
":%	c #D3DE24",
"<%	c #CCD827",
"[%	c #C9D728",
"}%	c #BBCD2E",
"|%	c #9AB026",
"1%	c #A2BB24",
"2%	c #90A91D",
"3%	c #869F17",
"4%	c #688402",
"5%	c #80934D",
"6%	c #FCFBFE",
"7%	c #989E8A",
"8%	c #323D2A",
"9%	c #4B5445",
"0%	c #7F8C1E",
"a%	c #CCDC29",
"b%	c #CEDF2B",
"c%	c #556E1C",
"d%	c #A1B822",
"e%	c #8BA419",
"f%	c #859E17",
"g%	c #607C01",
"h%	c #B0BA97",
"i%	c #FBFCFB",
"j%	c #D5D6D3",
"k%	c #1D2817",
"l%	c #252F24",
"m%	c #3F4934",
"n%	c #2E3722",
"o%	c #AABF1D",
"p%	c #B2C827",
"q%	c #A7BF23",
"r%	c #839D18",
"s%	c #789212",
"t%	c #5C780B",
"u%	c #DEE3D8",
"v%	c #D6D951",
"w%	c #151B08",
"x%	c #192514",
"y%	c #273123",
"z%	c #B9BCB9",
"A%	c #687050",
"B%	c #779308",
"C%	c #7B960F",
"D%	c #7A9513",
"E%	c #678405",
"F%	c #697F2C",
"G%	c #FBFBFD",
"H%	c #FBFBF9",
"I%	c #B9C166",
"J%	c #999D9E",
"K%	c #B0B3AB",
"L%	c #707E4E",
"M%	c #687A3A",
"N%	c #A5AF8F",
"O%	c #FCFDFC",
"P%	c #ADADB5",
"Q%	c #131229",
"R%	c #05051B",
". + @ # @ # @ # # # # # $ % # # # # $ @ @ # # $ $ # @ # @ # @ # # # # # # @ # # $ # # @ @ # & * ",
"= - - - ; - - ; ; - - - - - - - - ; - - ; - - - - - - - ; ; ; ; ; - - - - - ; - - - - - - ; -   ",
"> - - - - - - - - - - - - - - - - - - - - - - - - - - - - - - - - - - - - - - - - - - - - - -   ",
"> - - - ; - - ; ; - - - - - - - - ; - - ; - - - - - - - ; ; ; ; ; - - - - - ; - - - - - - ; -   ",
"> - ; - ; ; ; ; ; - - ; - - ; - - ; - ; ; ; - - - ; - - ; ; ; ; ; ; - - , - ; ; - ; - - ; ; -   ",
"> - - - - - - - ; - - - - - - - - - - - - - - - - - - - - - ; - ' ) ! ~ { ] ^ - - - - - - ; -   ",
"> - - - ; - - ; ; - - - - - - - - ; - - ; - - - - - - - ; ; ; ; / ( _ : < [ } | - - - - - ; -   ",
"> ; ; ; ; ; ; ; ; ; ; ; - - ; ; ; ; - ; ; ; ; - - ; ; ; ; ; ; 1 2 3 4 5 6 7 8 9 - ; ; ; ; ; ;   ",
"> - ; - ; ; ; ; ; - - ; - - ; - - ; - ; ; ; - - - ; - - ; - 0 a b c d e f g h i j ; - - ; ; -   ",
"> - - - ; - - ; ; - - - - - - - - ; - - ; - - - - - - - - k l m n o p q r s t u v w - ; - ; -   ",
"> - - - ; - - ; ; - - - - - - - - ; - - ; - - - - - - - k l x y z A B C D E F G H I - - - ; -   ",
"J - - - ; - - ; ; - - - - - - - - ; - - ; - - ; - K - L M N O P Q R S T U V W X Y Z ` - - ; -   ",
" .- - - - - - - ; - - - - - - - - - - - - - ; - ; - ..+.@.#.$.%.&.*.Q S =.-.;.>.,.'.).!.- ; -   ",
"> - - - ; - - ; ; - - - - - - - - ; - - ; ; - ; - ~.{.@.].^./.(._.:.<.<.[.}.|.1.2.3.4.5.- ; -   ",
" .- - - - - - - ; - - - - - - - - - - ; - ; ; - 6.7.8.9.0.a.b.c.d.e.f.g.h.i.j.k.l.m.n.o.p.; -   ",
"> - - - ; - - ; ; - - - - - - - - ; ; ; ; ; - q.r.s.t.u.*.v.w.x.y.z.A.B.C.D.E.F.;.G.H.I.).J.-   ",
"> - - - ; - - ; ; - - - - - - - - ; - - ; - K.L.m M.N.O.P.Q.R.S.T.U.V.W.X.Y.Z.`. +.+++@+#+$+-   ",
"> - ; - ; ; ; ; ; - - ; - - ; - - ; - ; ; %+&+*+=+-+;+>+,+'+)+!+~+{+]+^+/+(+_+:+<+[+}+|+1+- 2+  ",
"> - - - - - - - ; - - - - - - - ; - ; - 3+4+5+6+7+8+9+0+a+b+c+d+e+f+g+h+i+j+k+l+m+n+o+p+- ; -   ",
"> - - - ; - - ; ; - - - - - ; - ; ; - q+r+s+t+u+v+w+x+y+z+A+B+C+D+E+F+G+H+I+J+K+L+M+N+- O+- -   ",
"> - ; - ; ; ; ; ; - ; ; - - - - ; - P+Q+R+S+T+U+V+W+X+Y+Z+`+ @.@+@@@#@$@%@&@*@=@-@;@- O+; - -   ",
"> - - - ; - - ; ; ; - ; ; ; ; ; - >@,@'@)@!@~@{@]@z.^@/@(@_@:@<@[@}@|@1@2@3@4@5@6@- ; - - ; -   ",
"> - - - ; - - ; ; - - - ; ; ; - 7@8@R+9@0@a@b@c@d@e@f@g@h@i@j@k@l@m@n@o@p@q@r@s@- ; - - ; ; -   ",
" .- - - - - - - - ; ; - ; ; - - t@u@v@w@x@y@z@A@B@C@D@h@E@F@G@H@I@J@o@K@L@M@N@- ; - - - - ; -   ",
" .- - - - - - - ; - - ; ; - ' O@R+P@Q@R@S@T@P.U@V@W@X@Y@Z@`@ #.#J++#@###$#%#- ; ; ; - - - ; -   ",
"> - - - - - ; ; - ; - - ; - &#*#=#-#;#>#,#'#)#!#~#{#]#^#/#(#_#:#p@<#[#}#- ; - ; - - - - - ; -   ",
"> ; - ; - - ; - ; - - O+- |#1#2#3#4#5#6#7#8#9#0#a#b#c#G+d#e#f#g#h#i#j#- ; - ; - - - ; ; - ; ;   ",
"> - - ; - - ; - - - O+- k#1#2#l#0.m#n#o#p#q#r#s#t#u#v#m@w#f#x#y#z#A#- ; - - ; - - - - - - ; -   ",
"> - ; ; ; - ; ; ; O+- B#C#D#E#0.F#G#H#I#J#K#L#M#N#O#P#J+Q#R#S#T#U#; ; ; - - ; ; - ; - - ; ; -   ",
"> - ; - - - ; ; O+- V#W#X#Y#Z#`# $.$+$@$#$$$%$&$*$=$:#p@-$;$>$- - ; - ; - - - ; - ; - - ; ; -   ",
"> - ; ; ; - ; ; - ,$'$)$!$~${$]$^$/$($_$:$<$`@[$}$|$p@1$2$3$; - ; ; - ; - - ; ; - ; - - ; ; -   ",
"> - ; - - ; ; ; 4$5$6$7$8$9$0$a$b$c$d$e$f$g$h$i$K+j$k$l$m$- ; ; ; ; - ; - - ; ; - ; - - ; ; -   ",
"> - ; ; - - ; ; n$o$p$*.q$r$s$t$u$v$w$x$y$z$A$B$C$L@D$E$- O+; ; ; ; - ; - - ; ; - ; - - ; ; -   ",
"F$- ; ; ; - ; - G$H$I$J$K$L$M$N$O$P$Q$R$S$T$K+R#U$V$- - ; ; ; ; ; - - - - - ; - - - - - - ; -   ",
"> - - ; - - ; W$- X$Y$Z$`$ %.%+%@%&$#%$%%%Q#&%*%=%- 2+- ; ; ; ; ; - - - - - ; - - - - - - ; -   ",
"J - - - - - ; ; - -%;%>%,%'%)%!%g$ #~%{%x#]%^%/%- ; - - ; ; ; ; ; - - - - - ; - - - - - - ; -   ",
"> - - - ; - - O+- (%_%:%<%[%}%|%1%2%3%C$4%5%6%- ; - ; - ; ; ; ; ; - - - - - ; - - - - - - ; -   ",
"> - - - ; - ; ; 7%8%9%0%a%b%c%d%e%f%4@g%h%- i%- - - - - ; ; ; ; ; - - - - - ; - - - - - - ; -   ",
"> - ; - ; ; W$j%k%l%m%n%o%p%q%:#r%s%t%u%; W$- ; - ; - - ; ; ; ; ; ; - ; - - ; ; - ; - - ; ; -   ",
"> - - - ; - - v%w%x%y%z%A%B%C%D%E%F%G%- ; - - - - - - - ; ; ; ; ; - - - - - ; - - - - - - ; -   ",
" .- - - - - - H%I%J%' - - K%L%M%N%- O%- ; - - - - - - - - - ; - - - - - - - - - - - - - - ; -   ",
"> - - - - - - - - - W$- ; - - - - - ; - - - - - - - - - - - ; - - - - - - - - - - - - - - ; -   ",
"> - - - ; - - ; ; ; - - - ; ; - - ; - - ; - - - - - - - ; ; ; ; ; - - - - - ; - - - - - - ; -   ",
"> - - - ; - - ; ; ; - - ; ; - - - ; - - ; - - - - - - - ; ; ; ; ; - - - - - ; - - - - - - ; -   ",
"> - - - - - - - - - - - - - - - - - - - - - - - - - - - - - - - - - - - - - - - - - - - - - -   ",
" .- ; - - ; ; - ; - ; ; - - ; - - - - ; - ; - - - ; - - - - ; - - ; - ; - - - ; - ; - - ; ; -   ",
"P%- - - ; - - ; ; - - - - - - - - ; - - ; - - - - - - - ; ; ; ; ; - - - - - ; - - - - - - ; -   ",
"Q%                                                                                            R%"};
